<svg width="210" height="287" viewBox="0 0 210 287" fill="none" xmlns="http://www.w3.org/2000/svg">
<path fill-rule="evenodd" clip-rule="evenodd" d="M182.798 55.2986C197.821 55.2986 210 42.9195 210 27.6493C210 12.3791 197.821 0 182.798 0C167.774 0 155.596 12.3791 155.596 27.6493C155.596 42.9195 167.774 55.2986 182.798 55.2986ZM103.64 76.312C83.1415 76.312 63.1042 82.4906 46.0606 94.0658C29.0171 105.641 15.7332 122.094 7.88901 141.343C0.0448329 160.592 -2.00744 181.773 1.99142 202.208C5.99028 222.642 15.8612 241.413 30.3551 256.145C44.8495 270.878 63.3163 280.911 83.4207 284.976C103.525 289.041 124.363 286.954 143.301 278.981C162.239 271.008 178.425 257.506 189.813 240.182C200.797 223.472 206.842 203.93 207.257 183.868H207.28V76.312H158.316L158.046 183.179C157.764 193.588 154.597 203.716 148.894 212.391C142.914 221.489 134.413 228.58 124.468 232.767C114.523 236.955 103.579 238.05 93.0212 235.916C82.4636 233.781 72.7653 228.512 65.1536 220.775C57.542 213.038 52.3582 203.181 50.2581 192.449C48.158 181.718 49.236 170.594 53.3553 160.485C57.4746 150.376 64.4509 141.736 73.4014 135.657C82.3519 129.578 92.8749 126.333 103.64 126.333V76.312Z" fill="#5858D0"/>
</svg>
