<?xml version="1.0" encoding="UTF-8"?>
<svg id="Capa_1" data-name="Capa 1" xmlns="http://www.w3.org/2000/svg" xmlns:xlink="http://www.w3.org/1999/xlink" viewBox="0 0 1080 1080">
  <defs>
    <style>
      .cls-1 {
        fill: #fff;
      }

      .cls-2 {
        fill: #fafafa;
      }

      .cls-3 {
        fill: #cf649a;
      }

      .cls-4 {
        fill: url(#Degradado_sin_nombre_4);
      }

      .cls-5 {
        fill: #e34d27;
      }

      .cls-6 {
        fill: #428dcb;
      }

      .cls-7 {
        fill: url(#Degradado_sin_nombre_2);
        stroke: #fff;
        stroke-width: .92px;
      }
    </style>
    <linearGradient id="Degradado_sin_nombre_4" data-name="Degradado sin nombre 4" x1="129.22" y1="446.79" x2="539.94" y2="120.76" gradientTransform="translate(0 1082) scale(1 -1)" gradientUnits="userSpaceOnUse">
      <stop offset="0" stop-color="#9013fe"/>
      <stop offset="1" stop-color="#6610f2"/>
    </linearGradient>
    <linearGradient id="Degradado_sin_nombre_2" data-name="Degradado sin nombre 2" x1="255.53" y1="381.96" x2="347.34" y2="226.69" gradientTransform="translate(0 1082) scale(1 -1)" gradientUnits="userSpaceOnUse">
      <stop offset="0" stop-color="#fff"/>
      <stop offset="1" stop-color="#f1e5fc"/>
    </linearGradient>
  </defs>
  <rect class="cls-1" x="187.67" y="165.54" width="253" height="299" rx="11.07" ry="11.07"/>
  <path class="cls-5" d="m120.91,107.98l35.47,397.43,159.18,43.97,159.62-43.92,35.51-397.48H120.91Zm316,94.1l-2.22,25.43-.98,11.66h-186.73l4.46,49.64h177.83l-1.19,12.31-11.46,128.06-.84,8.05-99.97,27.47h0s-.12.07-.12.07l-99.9-26.32-6.78-75.19h48.98l3.47,38.71,54.2,14.47h.15v-1.94l54.44-13.74,5.69-62.33h-169.12l-11.99-135.15-1.17-13.77h244.43s-1.17,12.55-1.17,12.55Z"/>
  <g>
    <path class="cls-6" d="m571.16,107.15l35.33,399.01,158.63,44.33,158.58-44.31,35.38-399.03h-387.92Z"/>
    <path class="cls-2" d="m883.55,237.63l-4.46,50.13-13.47,150.26-100.5,27.79-.08.03-100.44-27.82-7.01-78.58h49.21l3.66,40.76,54.61,14.74.03-.03,54.7-14.74,7.45-67.91-172.02.47-4.88-46.44,181.02-2.13,3.66-49.71-189.53.53-3.19-46.25h245.61l-4.38,48.91Z"/>
  </g>
  <path class="cls-4" d="m133.74,645.88c-.89-25.47,18.95-48.95,45.77-48.95h274.81c26.82,0,46.66,23.48,45.77,48.95-.85,24.46.25,56.15,8.23,81.99,8,25.92,21.49,42.3,43.59,44.4v23.87c-22.1,2.1-35.59,18.49-43.59,44.4-7.97,25.84-9.08,57.53-8.23,81.99.89,25.46-18.95,48.95-45.77,48.95H179.51c-26.82,0-46.66-23.48-45.77-48.95.85-24.46-.26-56.15-8.23-81.99-8-25.92-21.52-42.3-43.62-44.4v-23.87c22.1-2.1,35.62-18.49,43.62-44.4,7.98-25.84,9.08-57.53,8.23-81.99Z"/>
  <path class="cls-7" d="m327.09,883.77c43.42,0,69.58-21.26,69.58-56.32,0-26.51-18.67-45.69-46.39-48.73v-1.1c20.37-3.31,36.35-22.23,36.35-43.35,0-30.1-23.76-49.7-59.97-49.7h-81.46v199.21h81.89Zm-50.21-173.94h42.15c22.91,0,35.92,10.22,35.92,28.71,0,19.74-15.13,30.79-42.57,30.79h-35.5v-59.5Zm0,148.68v-65.57h41.86c29.98,0,45.54,11.04,45.54,32.58s-15.13,32.99-43.7,32.99h-43.7Z"/>
  <path class="cls-3" d="m959.87,802.86c-14.73.08-27.49,3.62-38.18,8.89-3.95-7.82-7.9-14.65-8.56-19.75-.74-5.93-1.65-9.55-.74-16.62.9-7.08,5.02-17.12,5.02-17.94-.08-.74-.91-4.36-9.38-4.44-8.48-.08-15.8,1.65-16.62,3.87s-2.47,7.32-3.54,12.59c-1.48,7.74-16.95,35.14-25.76,49.54-2.88-5.6-5.35-10.53-5.84-14.48-.74-5.92-1.65-9.55-.74-16.62.91-7.08,5.02-17.12,5.02-17.94-.08-.74-.91-4.36-9.38-4.44-8.48-.08-15.8,1.65-16.62,3.87s-1.73,7.49-3.54,12.59c-1.73,5.1-22.3,50.86-27.65,62.79-2.72,6.09-5.1,10.94-6.83,14.24-1.73,3.29-.08.25-.25.58-1.48,2.8-2.3,4.36-2.3,4.36v.08c-1.15,2.06-2.39,4.03-2.96,4.03-.41,0-1.23-5.51.16-13.08,3.04-15.88,10.45-40.65,10.37-41.56,0-.41,1.4-4.77-4.77-6.99-6.01-2.22-8.15,1.48-8.64,1.48s-.91,1.32-.91,1.32c0,0,6.67-27.9-12.76-27.9-12.18,0-28.97,13.25-37.28,25.35-5.27,2.88-16.46,8.97-28.31,15.47-4.53,2.47-9.22,5.1-13.66,7.49l-.9-.99c-23.54-25.1-67.07-42.87-65.26-76.61.66-12.26,4.94-44.6,83.61-83.77,64.43-32.09,116.03-23.29,125-3.7,12.76,27.98-27.57,79.99-94.55,87.48-25.51,2.88-38.93-6.99-42.3-10.7-3.54-3.87-4.03-4.03-5.35-3.29-2.14,1.15-.82,4.61,0,6.67,1.98,5.18,10.2,14.4,24.19,19.01,12.26,4.03,42.22,6.25,78.42-7.74,40.57-15.72,72.25-59.33,62.95-95.79-9.46-37.11-71.02-49.29-129.2-28.64-34.65,12.34-72.17,31.6-99.16,56.86-32.09,29.95-37.2,56.12-35.06,66.99,7.49,38.76,60.9,64.02,82.29,82.7-1.07.58-2.06,1.15-2.96,1.65-10.7,5.27-51.43,26.58-61.64,49.13-11.52,25.51,1.81,43.86,10.7,46.33,27.49,7.65,55.63-6.09,70.85-28.72,15.14-22.63,13.33-52.01,6.34-65.42l-.25-.49,8.39-4.94c5.43-3.21,10.78-6.17,15.47-8.72-2.63,7.16-4.53,15.64-5.51,27.98-1.15,14.48,4.77,33.25,12.59,40.65,3.46,3.21,7.57,3.29,10.12,3.29,9.05,0,13.17-7.49,17.69-16.46,5.6-10.94,10.53-23.62,10.53-23.62,0,0-6.17,34.32,10.7,34.32,6.17,0,12.34-7.98,15.14-12.1v.08s.16-.25.49-.82c.35-.51.67-1.03.99-1.56v-.16c2.47-4.28,7.98-14.07,16.21-30.28,10.61-20.9,20.82-47.07,20.82-47.07,0,0,.99,6.42,4.03,16.95,1.81,6.26,5.76,13.08,8.8,19.75-2.47,3.46-3.95,5.43-3.95,5.43l.08.08c-1.97,2.63-4.2,5.43-6.5,8.23-8.39,10.04-18.43,21.48-19.75,24.77-1.56,3.87-1.23,6.75,1.81,9.05,2.22,1.65,6.17,1.97,10.37,1.65,7.57-.49,12.84-2.39,15.47-3.54,4.11-1.48,8.81-3.7,13.33-6.99,8.23-6.09,13.25-14.73,12.76-26.25-.25-6.34-2.3-12.59-4.86-18.52.74-1.07,1.48-2.14,2.22-3.29,13-19.01,23.04-39.91,23.04-39.91,0,0,.99,6.42,4.03,16.95,1.56,5.35,4.69,11.19,7.49,16.95-12.18,9.96-19.83,21.48-22.47,29.05-4.86,13.99-1.07,20.33,6.09,21.81,3.21.66,7.82-.82,11.27-2.3,4.28-1.4,9.46-3.79,14.24-7.32,8.23-6.09,16.13-14.57,15.72-26-.25-5.27-1.65-10.45-3.54-15.39,10.37-4.28,23.78-6.75,40.82-4.69,36.62,4.28,43.86,27.16,42.46,36.7-1.4,9.55-9.05,14.81-11.6,16.46-2.55,1.56-3.37,2.14-3.13,3.29.33,1.73,1.48,1.65,3.7,1.32,3.04-.49,19.26-7.82,19.91-25.43.99-22.63-20.49-47.32-58.59-47.08h0Zm-282.43,95.21c-12.1,13.25-29.13,18.27-36.37,13.99-7.82-4.53-4.77-24.03,10.12-38.1,9.05-8.56,20.82-16.46,28.56-21.31,1.73-1.07,4.36-2.63,7.49-4.53.49-.33.82-.49.82-.49.58-.33,1.23-.74,1.89-1.15,5.51,20.08.25,37.69-12.51,51.6h0Zm88.46-60.16c-4.2,10.29-13.08,36.7-18.43,35.22-4.61-1.23-7.41-21.23-.91-40.98,3.29-9.96,10.29-21.81,14.4-26.42,6.67-7.41,13.91-9.88,15.72-6.83,2.14,3.95-8.15,32.59-10.78,39.01Zm72.99,34.89c-1.81.91-3.46,1.56-4.2,1.07-.58-.33.74-1.56.74-1.56,0,0,9.13-9.79,12.76-14.32,2.06-2.63,4.53-5.68,7.16-9.13v.99c0,11.85-11.36,19.75-16.46,22.96h0Zm56.29-12.84c-1.32-.99-1.15-4.03,3.29-13.58,1.73-3.79,5.68-10.12,12.51-16.13.82,2.47,1.32,4.85,1.23,7.08-.08,14.81-10.61,20.33-17.03,22.63Z"/>
</svg>