<?xml version="1.0" encoding="UTF-8"?>
<svg id="Capa_1" data-name="Capa 1" xmlns="http://www.w3.org/2000/svg" viewBox="0 0 1080 1080">
  <defs>
    <style>
      .cls-1 {
        fill: #fff;
      }

      .cls-2 {
        fill: #fafafa;
      }

      .cls-3 {
        fill: #2196f3;
      }

      .cls-4 {
        fill: #e44d26;
      }
    </style>
  </defs>
  <rect class="cls-1" x="194" y="190" width="253" height="299" rx="11.07" ry="11.07"/>
  <path class="cls-4" d="m127.25,132.45l35.47,397.43,159.18,43.97,159.62-43.92,35.51-397.48H127.25Zm316,94.1l-2.22,25.43-.98,11.66h-186.73l4.46,49.64h177.83l-1.19,12.31-11.46,128.06-.84,8.05-99.97,27.47h0s-.12.07-.12.07l-99.9-26.32-6.78-75.19h48.98l3.47,38.71,54.2,14.47h.15v-1.94l54.44-13.74,5.69-62.33h-169.12l-11.99-135.15-1.17-13.77h244.43s-1.17,12.55-1.17,12.55Z"/>
  <g>
    <path class="cls-3" d="m565.17,504.21l35.33,399.01,158.63,44.33,158.58-44.31,35.38-399.03h-387.92Z"/>
    <path class="cls-2" d="m877.55,634.7l-4.46,50.13-13.47,150.26-100.5,27.79-.08.03-100.44-27.82-7.01-78.58h49.21l3.66,40.76,54.61,14.74.03-.03,54.7-14.74,7.45-67.91-172.02.47-4.88-46.44,181.02-2.13,3.66-49.71-189.53.53-3.19-46.25h245.61l-4.38,48.91Z"/>
  </g>
</svg>