<?xml version="1.0" encoding="UTF-8"?>
<svg id="Capa_1" data-name="Capa 1" xmlns="http://www.w3.org/2000/svg" viewBox="0 0 56.69 56.69">
  <defs>
    <style>
      .cls-1 {
        fill: #032d3f;
        fill-rule: evenodd;
      }

      .cls-2 {
        fill: #ffd600;
      }
    </style>
  </defs>
  <rect class="cls-2" x="3.12" y="14.82" width="50.53" height="27.05" rx="12.74" ry="12.74"/>
  <path class="cls-1" d="m40.31,13.45h-23.84c-8.23,0-14.9,6.67-14.9,14.9s6.67,14.9,14.9,14.9h23.84c8.23,0,14.9-6.67,14.9-14.9s-6.67-14.9-14.9-14.9Zm0,1.99c7.13,0,12.91,5.78,12.91,12.91s-5.78,12.91-12.91,12.91h-23.84c-7.13,0-12.91-5.78-12.91-12.91s5.78-12.91,12.91-12.91h23.84Zm-17.68,7.95c1.34,1.3,2.06,3.1,1.99,4.97.03,1.88-.72,3.68-2.09,4.97-1.32,1.3-3.11,2.01-4.97,1.99-3.75.09-6.87-2.88-6.95-6.63,0-.11,0-.21,0-.32.06-1.86.8-3.63,2.09-4.97,1.32-1.3,3.11-2.01,4.97-1.99,1.86-.07,3.67.65,4.97,1.99Zm13.01-1.89c.56-.02,1.05.35,1.19.89l2.98,9.14,3.18-9.14c.2-.5.66-.84,1.19-.89.62,0,1.14.47,1.19,1.09.02.17-.02.34-.1.5l-3.97,11.13c-.12.57-.61.97-1.19.99h-.2c-.59.01-1.1-.41-1.19-.99l-2.98-8.74-2.98,8.74c-.09.58-.6,1.01-1.19.99h-.2c-.59.01-1.1-.41-1.19-.99l-4.27-11.03c-.09-.15-.13-.32-.1-.5.01-.65.54-1.18,1.19-1.19.54.04,1,.39,1.19.89l3.08,9.24,2.98-9.24c.14-.54.63-.91,1.19-.89h.2Zm-17.98,2.09c-1.24,0-2.42.5-3.28,1.39-.88.89-1.32,2.13-1.19,3.38-.03,1.25.44,2.46,1.29,3.38,1.75,1.81,4.64,1.86,6.45.11.04-.04.07-.07.11-.11.77-.87,1.2-1.98,1.2-3.14v-.24c.1-2.53-1.86-4.66-4.39-4.76-.06,0-.12,0-.18,0h0Z"/>
</svg>