<svg width="132" height="132" viewBox="0 0 132 132" fill="none" xmlns="http://www.w3.org/2000/svg">
<path d="M108.006 0H23.0575C10.3232 0 0 10.3232 0 23.0575V108.006C0 120.741 10.3232 131.064 23.0575 131.064H108.006C120.741 131.064 131.064 120.741 131.064 108.006V23.0575C131.064 10.3232 120.741 0 108.006 0Z" fill="#442F2A"/>
<path fill-rule="evenodd" clip-rule="evenodd" d="M89.2278 39.127C93.7992 39.127 97.5052 35.421 97.5052 30.8496C97.5052 26.2781 93.7992 22.5721 89.2278 22.5721C84.6562 22.5721 80.9504 26.2781 80.9504 30.8496C80.9504 35.421 84.6562 39.127 89.2278 39.127ZM65.1403 45.4178C58.9029 45.4178 52.8056 47.2675 47.6194 50.7328C42.4331 54.1981 38.3909 59.1235 36.004 64.8861C33.617 70.6488 32.9925 76.9897 34.2094 83.1074C35.4262 89.2249 38.4299 94.8443 42.8403 99.2548C47.2508 103.665 52.8702 106.669 58.9878 107.886C65.1054 109.103 71.4464 108.478 77.209 106.091C82.9717 103.704 87.897 99.6621 91.3624 94.4758C94.7049 89.4733 96.5443 83.623 96.6704 77.617H96.6774V45.4178H81.778L81.696 77.4107C81.6102 80.5269 80.6464 83.5591 78.9111 86.1561C77.0913 88.8798 74.5046 91.0025 71.4783 92.256C68.452 93.5096 65.122 93.8376 61.9092 93.1985C58.6966 92.5595 55.7455 90.9821 53.4293 88.6658C51.1131 86.3496 49.5357 83.3986 48.8966 80.1859C48.2576 76.9732 48.5856 73.6431 49.8391 70.6169C51.0926 67.5905 53.2154 65.0039 55.939 63.1841C58.6626 61.3642 61.8647 60.3928 65.1403 60.3928V45.4178Z" fill="#F5CBD7"/>
</svg>
