<svg width="132" height="132" viewBox="0 0 132 132" fill="none" xmlns="http://www.w3.org/2000/svg">
<path d="M108.006 0H23.0575C10.3232 0 0 10.3232 0 23.0575V108.006C0 120.741 10.3232 131.064 23.0575 131.064H108.006C120.741 131.064 131.064 120.741 131.064 108.006V23.0575C131.064 10.3232 120.741 0 108.006 0Z" fill="#FFF7EC"/>
<path fill-rule="evenodd" clip-rule="evenodd" d="M89.2278 39.1268C93.7992 39.1268 97.5052 35.4209 97.5052 30.8494C97.5052 26.278 93.7992 22.572 89.2278 22.572C84.6562 22.572 80.9504 26.278 80.9504 30.8494C80.9504 35.4209 84.6562 39.1268 89.2278 39.1268ZM65.1403 45.4177C58.9029 45.4177 52.8056 47.2674 47.6194 50.7327C42.4331 54.198 38.3909 59.1234 36.004 64.886C33.617 70.6487 32.9925 76.9896 34.2094 83.1072C35.4262 89.2248 38.4299 94.8441 42.8403 99.2547C47.2508 103.665 52.8702 106.669 58.9878 107.886C65.1054 109.103 71.4464 108.478 77.209 106.091C82.9717 103.704 87.897 99.6619 91.3624 94.4757C94.7049 89.4732 96.5443 83.6229 96.6704 77.6169H96.6774V45.4177H81.778L81.696 77.4106C81.6102 80.5267 80.6464 83.5589 78.9111 86.1559C77.0913 88.8796 74.5046 91.0024 71.4783 92.2559C68.452 93.5095 65.122 93.8375 61.9092 93.1984C58.6966 92.5594 55.7455 90.982 53.4293 88.6657C51.1131 86.3495 49.5357 83.3985 48.8966 80.1857C48.2576 76.9731 48.5856 73.643 49.8391 70.6167C51.0926 67.5904 53.2154 65.0038 55.939 63.184C58.6626 61.3641 61.8647 60.3927 65.1403 60.3927V45.4177Z" fill="#E3A1B1"/>
</svg>
