<svg width="600" height="131" viewBox="0 0 600 131" fill="none" xmlns="http://www.w3.org/2000/svg">
<rect width="600" height="131" rx="23" fill="#FFF7EC"/>
<path fill-rule="evenodd" clip-rule="evenodd" d="M97.0746 78.0449H97.0658C96.9397 84.0508 95.1016 89.9009 91.7592 94.9033C88.2939 100.089 83.3684 104.132 77.6059 106.519C71.8432 108.906 65.5017 109.53 59.3842 108.313C53.2667 107.097 47.6472 104.093 43.2367 99.6826C38.8263 95.2721 35.8227 89.6526 34.6059 83.5352C33.3891 77.4178 34.014 71.0769 36.4008 65.3145C38.7877 59.5519 42.8299 54.6264 48.016 51.1611C53.2022 47.6958 59.3001 45.8457 65.5375 45.8457V60.8203C62.2619 60.8203 59.0589 61.7925 56.3354 63.6123C53.612 65.4321 51.4892 68.0188 50.2357 71.0449C48.9823 74.071 48.6544 77.4008 49.2934 80.6133C49.9324 83.8259 51.5095 86.7776 53.8256 89.0938C56.1418 91.41 59.0934 92.9869 62.3061 93.626C65.5188 94.265 68.8491 93.9371 71.8754 92.6836C74.9015 91.43 77.4882 89.3075 79.308 86.584C81.0728 83.9428 82.0363 80.8515 82.0932 77.6797L82.1752 45.8457H97.0746V78.0449ZM89.6244 23C94.1959 23 97.9017 26.7059 97.9018 31.2773C97.9018 35.8488 94.1959 39.5547 89.6244 39.5547C85.0529 39.5547 81.3471 35.8488 81.3471 31.2773C81.3471 26.7059 85.053 23 89.6244 23Z" fill="#E3A1B1"/>
<path d="M551.786 40.0553H565.333V91.9472H551.786V40.0553Z" fill="#442F2A"/>
<path d="M539.684 55.5266C537.858 54.3916 535.909 53.4292 533.836 52.6396C531.813 51.8007 529.839 51.1591 527.914 50.715C526.039 50.2215 524.386 49.9747 522.955 49.9747C521.326 49.9747 520.018 50.2955 519.031 50.937C518.044 51.5292 517.551 52.4669 517.551 53.75C517.551 55.0331 518.02 56.0942 518.957 56.9331C519.944 57.7227 521.252 58.3889 522.881 58.9318C524.509 59.4747 526.31 60.0175 528.284 60.5604C530.258 61.1032 532.208 61.7448 534.132 62.485C536.057 63.2253 537.834 64.1876 539.462 65.372C541.091 66.5071 542.399 67.9876 543.386 69.8136C544.373 71.6395 544.866 73.9096 544.866 76.6239C544.866 80.1278 543.928 83.0888 542.053 85.507C540.178 87.8758 537.661 89.6771 534.503 90.9108C531.344 92.0953 527.84 92.6875 523.991 92.6875C521.079 92.6875 518.168 92.3667 515.256 91.7251C512.394 91.0342 509.655 90.0719 507.039 88.8381C504.473 87.555 502.153 86.0498 500.081 84.3226L505.337 73.885C507.113 75.4642 509.112 76.846 511.333 78.0304C513.553 79.2148 515.799 80.1525 518.069 80.8434C520.339 81.4849 522.362 81.8057 524.139 81.8057C526.162 81.8057 527.742 81.4356 528.877 80.6953C530.061 79.9057 530.653 78.7707 530.653 77.2901C530.653 76.007 530.16 74.9707 529.173 74.1811C528.186 73.3421 526.878 72.6512 525.249 72.1084C523.621 71.5655 521.82 71.0473 519.845 70.5538C517.921 70.011 515.971 69.3941 513.997 68.7032C512.073 67.9629 510.296 67.0499 508.668 65.9642C507.039 64.8292 505.731 63.3733 504.744 61.5967C503.807 59.8201 503.338 57.5993 503.338 54.9344C503.338 51.7266 504.177 48.9383 505.855 46.5695C507.582 44.1514 510 42.3007 513.109 41.0176C516.268 39.6852 519.92 39.0189 524.065 39.0189C527.865 39.0189 531.591 39.5618 535.243 40.6475C538.895 41.7332 542.078 43.1397 544.792 44.8669L539.684 55.5266Z" fill="#442F2A"/>
<path d="M461.141 70.5538C461.141 73.9097 462.104 76.5746 464.028 78.5486C466.002 80.5226 468.445 81.5096 471.357 81.5096C474.269 81.5096 476.613 80.5473 478.389 78.6226C480.215 76.6486 481.128 73.959 481.128 70.5538V40.0553H494.675V70.5538C494.675 75.0941 493.713 79.0421 491.788 82.3979C489.913 85.7538 487.223 88.3446 483.719 90.1706C480.215 91.9966 476.07 92.9096 471.283 92.9096C466.496 92.9096 462.326 91.9966 458.773 90.1706C455.219 88.3446 452.456 85.7538 450.482 82.3979C448.557 79.0421 447.595 75.0941 447.595 70.5538V40.0553H461.141V70.5538Z" fill="#442F2A"/>
<path d="M434.76 57.4513C433.082 55.3292 431.083 53.6513 428.764 52.4175C426.444 51.1838 424.15 50.5669 421.879 50.5669C419.905 50.5669 418.055 50.9617 416.328 51.7513C414.6 52.4915 413.095 53.5526 411.812 54.9344C410.529 56.2668 409.542 57.8707 408.851 59.746C408.16 61.572 407.815 63.5707 407.815 65.7421C407.815 67.9135 408.16 69.9369 408.851 71.8122C409.542 73.6382 410.529 75.2421 411.812 76.6239C413.095 78.0057 414.6 79.0914 416.328 79.881C418.055 80.6213 419.905 80.9914 421.879 80.9914C424.051 80.9914 426.272 80.4485 428.542 79.3628C430.861 78.2278 432.934 76.7226 434.76 74.8473L442.681 83.2122C440.805 85.1862 438.683 86.9134 436.314 88.3939C433.946 89.8251 431.453 90.9355 428.838 91.7251C426.272 92.5147 423.705 92.9095 421.139 92.9095C417.241 92.9095 413.638 92.2433 410.331 90.9108C407.025 89.529 404.138 87.629 401.67 85.2108C399.252 82.7433 397.352 79.881 395.971 76.6239C394.589 73.3174 393.898 69.7395 393.898 65.8902C393.898 62.0902 394.589 58.5863 395.971 55.3785C397.352 52.1214 399.302 49.2838 401.819 46.8656C404.335 44.4474 407.272 42.5721 410.628 41.2397C414.033 39.9072 417.709 39.241 421.657 39.241C424.224 39.241 426.79 39.6111 429.356 40.3513C431.922 41.0423 434.34 42.0539 436.611 43.3864C438.881 44.7189 440.879 46.2981 442.607 48.124L434.76 57.4513Z" fill="#442F2A"/>
<path d="M347.276 40.0553H388.212V50.715H360.823V60.6344H385.547V71.2201H360.823V81.2875H388.953V91.9472H347.276V40.0553Z" fill="#442F2A"/>
<path d="M312.956 40.0553C317.052 40.0553 320.778 40.6969 324.134 41.98C327.539 43.2137 330.451 44.9903 332.869 47.3098C335.336 49.5799 337.236 52.2942 338.569 55.4526C339.901 58.611 340.568 62.1149 340.568 65.9642C340.568 69.8629 339.877 73.3915 338.495 76.5499C337.162 79.7083 335.262 82.4473 332.795 84.7667C330.327 87.0862 327.366 88.8628 323.912 90.0966C320.457 91.3303 316.633 91.9472 312.438 91.9472H290.6V40.0553H312.956ZM313.326 81.1395C315.3 81.1395 317.101 80.794 318.73 80.1031C320.359 79.3629 321.765 78.3265 322.95 76.9941C324.183 75.6616 325.121 74.0824 325.762 72.2564C326.404 70.3811 326.725 68.3331 326.725 66.1123C326.725 63.8422 326.379 61.7941 325.688 59.9682C324.998 58.0929 324.011 56.489 322.727 55.1565C321.494 53.7747 320.013 52.7383 318.286 52.0474C316.608 51.3072 314.733 50.9371 312.66 50.9371H304.147V81.1395H313.326Z" fill="#442F2A"/>
<path d="M232.406 40.0553H244.325L271.492 76.3278L267.939 77.5122V40.0553H280.449V91.9472H268.605L241.438 55.8227L245.065 54.6383V91.9472H232.406V40.0553Z" fill="#442F2A"/>
<path d="M192.03 40.0553H205.947L227.71 91.9472H213.275L198.618 53.602L183.665 91.9472H169.748L192.03 40.0553ZM183.073 72.4045H213.349V82.62H183.073V72.4045Z" fill="#442F2A"/>
<path d="M162.008 57.4513C160.33 55.3292 158.331 53.6513 156.011 52.4175C153.692 51.1838 151.397 50.5669 149.127 50.5669C147.153 50.5669 145.302 50.9617 143.575 51.7513C141.848 52.4915 140.343 53.5526 139.06 54.9344C137.777 56.2668 136.79 57.8707 136.099 59.746C135.408 61.572 135.062 63.5707 135.062 65.7421C135.062 67.9135 135.408 69.9369 136.099 71.8122C136.79 73.6382 137.777 75.2421 139.06 76.6239C140.343 78.0057 141.848 79.0914 143.575 79.881C145.302 80.6213 147.153 80.9914 149.127 80.9914C151.299 80.9914 153.519 80.4485 155.789 79.3628C158.109 78.2278 160.182 76.7226 162.008 74.8473L169.928 83.2122C168.053 85.1862 165.931 86.9134 163.562 88.3939C161.193 89.8251 158.701 90.9355 156.086 91.7251C153.519 92.5147 150.953 92.9095 148.387 92.9095C144.488 92.9095 140.886 92.2433 137.579 90.9108C134.273 89.529 131.386 87.629 128.918 85.2108C126.5 82.7433 124.6 79.881 123.218 76.6239C121.836 73.3174 121.145 69.7395 121.145 65.8902C121.145 62.0902 121.836 58.5863 123.218 55.3785C124.6 52.1214 126.549 49.2838 129.066 46.8656C131.583 44.4474 134.519 42.5721 137.875 41.2397C141.28 39.9072 144.957 39.241 148.905 39.241C151.471 39.241 154.037 39.6111 156.604 40.3513C159.17 41.0423 161.588 42.0539 163.858 43.3864C166.128 44.7189 168.127 46.2981 169.854 48.124L162.008 57.4513Z" fill="#442F2A"/>
</svg>
